#!OML:ASF F:\VICON\USERDATA\INSTALL\rory3\rory3.ASF
:FULLY-SPECIFIED
:DEGREES
75
root -0.43304782453248436 17.865695452049454 35.07106928648143 3.8736935299726105 1.137853506848893 1.289847872803608
lfemur 15.44818603227315 -4.759713531916979 -29.222524391864777
ltibia 2.088002956775952
lfoot -8.744053075479286 -4.557636297707663
ltoes -39.258399945600175
rfemur -47.57026251153576 -5.990563692525849 21.101444088724676
rtibia 67.3124247478523
rfoot 4.048376200066844 -0.1899208932837979
rtoes 2.40195479371935
lowerback 1.0 -0.5596414264052743 -3.49755061194963
upperback -1.0681911537972975 -1.14041384228475 0.5720850952209414
thorax -10.610133202205038 -0.28731981414171387 3.650766945680856
lowerneck -22.388953261802847 -2.1446381881812133 -1.9180994124765731
upperneck 7.360206666636481 -4.165152800870421 4.8780770704629886
head 6.1619298357015015 -1.335390789416438 1.2712581245465326
lclavicle 1.79327210564431e-14 -8.263952961481859e-15
lhumerus -32.20427129861545 -14.913647344974954 93.21936364458827
lradius 136.50332704376586
lwrist 53.154407964136816
lhand -28.579385545636885 -1.6100228221767774
lfingers nan
lthumb -1.7361735964156186 28.427047421982806
rclavicle 1.2515487474168377e-14 -1.1528815075936793e-14
rhumerus -64.84520728332994 9.967833762287052 -99.10881417197476
rradius 120.26821159007591
rwrist -5.6412944256249204
rhand -13.819775743232704 1.0
rfingers nan
rthumb 12.129360367498158 5.429446555675705
76
root -0.43158123565643397 17.964981700011577 34.89008704688087 4.141065408977893 -0.710416722138485 0.9194082915665507
lfemur 16.087660639294477 -3.92653903578519 -28.883135021651015
ltibia 0.7972204725438914
lfoot -2.5289958175266416 -6.744423805196022
ltoes -41.42820683943752
rfemur -47.873616766527476 -4.115697064256096 21.710724422526948
rtibia 61.26358583803628
rfoot 3.1587861747830153 0.2920691090289491
rtoes -2.1224099924918804
lowerback 1.0 -0.39790439871392025 -3.6191263956458455
upperback -1.4318206166143463 -0.9489589933076135 0.7364780621843602
thorax -10.692866901921665 -0.13521096904160107 3.6133012558752244
lowerneck -21.8112441919726 -1.9840028772381553 -1.9668654603906375
upperneck 7.844061280747422 -3.9982261471870775 4.75648390206541
head 6.211471218974209 -1.2935835653791254 1.2568943907327084
lclavicle 1.947498757003285e-14 -4.0135740013421746e-15
lhumerus -32.61149753244587 -15.049670124856164 93.29217874183904
lradius 136.45491409542714
lwrist 53.47850570874249
lhand -28.106931199808006 -1.7036582021624764
lfingers nan
lthumb -1.230187624584031 28.38987083532434
rclavicle 1.411821691126366e-14 -7.18255991926046e-15
rhumerus -65.2044189486067 9.596807086468989 -98.58031102978514
rradius 120.62535704841022
rwrist -2.6712742315506244
rhand -14.091932651095448 1.0
rfingers nan
rthumb 11.839349638216332 6.1000202786405895
77
root -0.4090681829576682 18.067550028451095 34.97887418180017 4.2864567966344165 -2.0073623476742437 0.6288141429519949
lfemur 17.07085976636683 -3.493926308282095 -28.70783860828844
ltibia -0.6435837394721275
lfoot 4.6408256864763295 -8.807574600522416
ltoes -42.252067390827385
rfemur -47.821669516479886 -2.8046186275814957 22.01761753674479
rtibia 54.8948379077718
rfoot 1.8117857045912884 0.8319898752281327
rtoes -6.974101318503541
lowerback 1.0 -0.3459535678613975 -3.487384896815115
upperback -1.6752232000424585 -0.8487592952666256 0.8241132007880959
thorax -10.459448015694093 -0.05883028338050306 3.495682791962472
lowerneck -20.788959925022652 -1.8665158536571642 -1.9124516533731692
upperneck 7.7927983058057855 -3.860426552129777 4.466617766520995
head 6.02258726612581 -1.2865664658253995 1.1661874905200444
lclavicle 1.6629148506564673e-14 -7.570843059057055e-17
lhumerus -33.08344354772986 -14.953196430674689 93.35190369751292
lradius 136.1874067915167
lwrist 52.80868805074619
lhand -26.578662116244196 -1.8309046642592006
lfingers nan
lthumb 0.2934262324697601 28.3490633207911
rclavicle 1.1506481395029397e-14 -3.01155084993171e-15
rhumerus -65.51908696262792 9.129131020762387 -97.83058054212975
rradius 121.07491911094489
rwrist -1.377250779052142
rhand -13.980111227602485 1.0
rfingers nan
rthumb 11.935942475215128 6.478442216945645
78
root -0.3843395578267896 18.159816173409524 35.40877749475362 4.3027883215961635 -3.0241199432737718 0.3823028989215298
lfemur 18.16607930401664 -3.393669648162918 -28.6442642760341
ltibia -2.0623994478211785
lfoot 14.293875472617241 -11.627856150356596
ltoes -41.34319390373944
rfemur -47.44895268427052 -1.7421431252734987 22.20315984807039
rtibia 48.36943147950394
rfoot 0.5208405556117204 1.2823460174618413
rtoes -13.363331567605279
lowerback 1.0 -0.36395712881186204 -3.270002070622546
upperback -1.9860790082368949 -0.8124077367755771 0.9029902516130898
thorax -10.535539433402851 -0.0336412968390149 3.4133006797699252
lowerneck -18.869916503953366 -1.757441179977219 -1.9386116692671784
upperneck 7.519490921761189 -3.6926274155698606 4.1941808323147445
head 5.658634529556453 -1.2728510315676633 1.1104310695662407
lclavicle 1.9075874560950707e-14 1.6899487988337865e-14
lhumerus -33.84621318588232 -14.953862264349887 93.53937967299537
lradius 135.87990761330119
lwrist 49.641537596224126
lhand -26.73572292370846 -1.2388060819304139
lfingers nan
lthumb 0.13107802108257083 28.98498695214441
rclavicle 1.4081509667006271e-14 1.409384929321506e-14
rhumerus -65.95375541331131 8.676153516439673 -97.31760354973991
rradius 121.44092452484273
rwrist -0.015880600496775088
rhand -14.419580630074375 1.0
rfingers nan
rthumb 11.516078299185576 6.8394054392896955
